<?xml version="1.0" encoding="UTF-8" standalone="no"?>
<!-- Created with Inkscape (http://www.inkscape.org/) -->
<svg
   xmlns:dc="http://purl.org/dc/elements/1.1/"
   xmlns:cc="http://creativecommons.org/ns#"
   xmlns:rdf="http://www.w3.org/1999/02/22-rdf-syntax-ns#"
   xmlns:svg="http://www.w3.org/2000/svg"
   xmlns="http://www.w3.org/2000/svg"
   xmlns:xlink="http://www.w3.org/1999/xlink"
   xmlns:sodipodi="http://sodipodi.sourceforge.net/DTD/sodipodi-0.dtd"
   xmlns:inkscape="http://www.inkscape.org/namespaces/inkscape"
   width="584.93066"
   height="184.34692"
   id="svg2"
   sodipodi:version="0.32"
   inkscape:version="0.46"
   version="1.0"
   sodipodi:docname="logo.svg"
   inkscape:output_extension="org.inkscape.output.svg.inkscape"
   inkscape:export-filename="/home/nikki/Development/Projects/grall2/etc/logo.png"
   inkscape:export-xdpi="73.854904"
   inkscape:export-ydpi="73.854904"
   style="display:inline;enable-background:new">
  <sodipodi:namedview
     id="base"
     pagecolor="#ffffff"
     bordercolor="#666666"
     borderopacity="1.0"
     gridtolerance="10000"
     guidetolerance="10"
     objecttolerance="10"
     inkscape:pageopacity="0.0"
     inkscape:pageshadow="2"
     inkscape:zoom="0.44587667"
     inkscape:cx="232.36666"
     inkscape:cy="88.641249"
     inkscape:document-units="px"
     inkscape:current-layer="layer6"
     showgrid="false"
     inkscape:window-width="1280"
     inkscape:window-height="782"
     inkscape:window-x="0"
     inkscape:window-y="18" />
  <defs
     id="defs4">
    <linearGradient
       id="linearGradient3843">
      <stop
         style="stop-color:#abb12d;stop-opacity:1;"
         offset="0"
         id="stop3845" />
      <stop
         style="stop-color:#23217e;stop-opacity:1;"
         offset="1"
         id="stop3847" />
    </linearGradient>
    <inkscape:perspective
       sodipodi:type="inkscape:persp3d"
       inkscape:vp_x="0 : 526.18109 : 1"
       inkscape:vp_y="0 : 1000 : 0"
       inkscape:vp_z="744.09448 : 526.18109 : 1"
       inkscape:persp3d-origin="372.04724 : 350.78739 : 1"
       id="perspective10" />
    <inkscape:perspective
       id="perspective2447"
       inkscape:persp3d-origin="372.04724 : 350.78739 : 1"
       inkscape:vp_z="744.09448 : 526.18109 : 1"
       inkscape:vp_y="0 : 1000 : 0"
       inkscape:vp_x="0 : 526.18109 : 1"
       sodipodi:type="inkscape:persp3d" />
    <linearGradient
       inkscape:collect="always"
       xlink:href="#linearGradient3843"
       id="linearGradient3849"
       x1="-34"
       y1="61"
       x2="683"
       y2="371"
       gradientUnits="userSpaceOnUse" />
    <clipPath
       id="clipPath">
      <path
         id="path3225"
         d="M 366.75854,577.93696 L 366.5,523.51174 L 355,542.9682 C 348.675,553.66925 342.17066,564.6606 340.54591,567.39342 L 337.59183,572.36218 L 330.1809,572.36218 L 322.76998,572.36218 L 324.21316,570.11218 C 327.78705,564.54029 339.28977,545.23071 358.01915,513.36218 C 369.1709,494.38718 378.67867,478.43468 379.14753,477.91218 C 379.61833,477.38752 380,511.75062 380,554.66218 L 380,632.36218 L 373.50854,632.36218 L 367.01708,632.36218 L 366.75854,577.93696 z M 246,538.86218 L 246,505.36218 L 251,505.36218 L 256,505.36218 L 256,509.70734 L 256,514.05251 L 259.95648,510.2888 C 265.35126,505.15687 271.19311,503.95223 287.64842,504.57851 C 301.17407,505.09329 306.31901,506.43434 310.75442,510.60119 C 313.78017,513.44374 316,521.24825 316,529.04368 L 316,535.36218 L 310.63437,535.36218 L 305.26873,535.36218 L 304.76134,528.27073 C 303.84762,515.50025 299.61318,513.05123 279.32251,513.55803 C 266.12582,513.88764 264.14879,514.60666 259.56179,520.74473 C 257.6326,523.32628 257.48073,525.07481 257.20031,547.93295 L 256.90063,572.36218 L 251.45031,572.36218 L 246,572.36218 L 246,538.86218 z M 456,524.86218 L 456,477.36218 L 462.5,477.36218 L 469,477.36218 L 469,519.86218 L 469,562.36218 L 506,562.36218 L 543,562.36218 L 543,567.36218 L 543,572.36218 L 499.5,572.36218 L 456,572.36218 L 456,524.86218 z"
         style="fill:#fffc00;fill-opacity:1;stroke:none"
         sodipodi:nodetypes="ccccccccssccccccccccccsscccccsscccccccccccccccccc" />
    </clipPath>
    <filter
       id="filter"
       height="2"
       width="2"
       x="-0.5"
       y="-0.5">
      <feGaussianBlur
         stdDeviation="5.0"
         id="feGaussianBlur6921" />
    </filter>
    <clipPath
       id="clipPathR">
      <path
         style="fill:#000080;fill-opacity:1;stroke:none"
         d="M 392,554.68816 L 392,477.01413 L 410,507.30686 C 419.9,523.96786 428,537.749 428,537.9316 C 428,538.11421 432.5,545.6888 438,554.76403 C 443.5,563.83926 448,571.51144 448,571.81332 C 448,572.11519 444.86209,572.36218 441.02687,572.36218 L 434.05375,572.36218 L 429.47397,564.61218 C 426.95509,560.34968 423.19314,554.16218 421.11409,550.86218 C 419.03503,547.56218 415.83608,542.16218 414.0053,538.86218 C 412.17453,535.56218 409.40793,530.83718 407.85731,528.36218 L 405.038,523.86218 L 405.019,578.11218 L 405,632.36218 L 398.5,632.36218 L 392,632.36218 L 392,554.68816 z M 127.5,572.36414 C 121.30278,571.06964 118.5275,569.76422 114.55218,566.27385 C 106.73393,559.40933 105,551.89222 105,524.86218 C 105,504.66657 105.98354,496.27494 109.05654,490.25135 C 111.39441,485.66876 117.75371,480.13961 122.72503,478.36717 C 127.80757,476.55508 187.90017,475.72719 198.2124,477.32718 C 212.77562,479.58675 220.60287,486.89104 221.72528,499.26913 L 222.27778,505.36218 L 216.27818,505.36218 L 210.27858,505.36218 L 209.67143,500.2357 C 208.91243,493.82713 206.8733,490.6528 202.17222,488.5616 C 199.11649,487.2023 193.55809,486.86514 169.06293,486.55327 C 152.87254,486.34714 137.25775,486.47435 134.36339,486.83598 C 127.61684,487.67891 123.07902,490.73216 120.25,496.33214 C 118.10229,500.58347 118,501.88056 118,524.86218 C 118,547.8438 118.10229,549.14089 120.25,553.39222 C 123.07476,558.98376 127.62215,562.0501 134.30046,562.86653 C 137.16021,563.21613 153,563.35818 169.5,563.18218 C 197.37528,562.88484 199.74048,562.72053 202.89547,560.86218 C 209.02839,557.24977 210.45888,554.26945 210.8495,544.29054 L 211.199,535.36218 L 186.5995,535.36218 L 162,535.36218 L 162,530.36218 L 162,525.36218 L 193,525.36218 L 224,525.36218 L 224,535.17852 C 224,556.63537 218.92522,567.65739 207.27733,571.49883 C 202.81722,572.96977 133.97411,573.71648 127.5,572.36414 z M 556,524.86218 L 556,477.36218 L 562.5,477.36218 L 569,477.36218 L 569,519.86218 L 569,562.36218 L 606,562.36218 L 643,562.36218 L 643,567.36218 L 643,572.36218 L 599.5,572.36218 L 556,572.36218 L 556,524.86218 z"
         id="path2453"
         sodipodi:nodetypes="cccssscccssccccccccssssscccccssssssssscccccccccscccccccccccccc" />
    </clipPath>
    <filter
       id="filteri"
       height="2"
       width="2"
       x="-0.5"
       y="-0.5">
      <feGaussianBlur
         stdDeviation="5.0"
         id="feGaussianBlur6926" />
    </filter>
    <filter
       id="filter8896"
       inkscape:collect="always">
      <feGaussianBlur
         id="feGaussianBlur8898"
         stdDeviation="2.1633441"
         inkscape:collect="always" />
    </filter>
    <filter
       id="filter8900"
       inkscape:collect="always">
      <feGaussianBlur
         id="feGaussianBlur8902"
         stdDeviation="2.1633441"
         inkscape:collect="always" />
    </filter>
    <filter
       id="filter8904"
       inkscape:collect="always">
      <feGaussianBlur
         id="feGaussianBlur8906"
         stdDeviation="2.1633441"
         inkscape:collect="always" />
    </filter>
    <filter
       id="filter8908"
       inkscape:collect="always">
      <feGaussianBlur
         id="feGaussianBlur8910"
         stdDeviation="2.1633441"
         inkscape:collect="always" />
    </filter>
    <filter
       height="1.1288137"
       y="-0.064406857"
       width="1.3476908"
       x="-0.1738454"
       id="filter9146"
       inkscape:collect="always">
      <feGaussianBlur
         id="feGaussianBlur9148"
         stdDeviation="4.1446733"
         inkscape:collect="always" />
    </filter>
    <filter
       height="1.1280673"
       y="-0.064033575"
       width="1.3552577"
       x="-0.17762886"
       id="filter9150"
       inkscape:collect="always">
      <feGaussianBlur
         id="feGaussianBlur9152"
         stdDeviation="4.1446733"
         inkscape:collect="always" />
    </filter>
    <clipPath
       id="clipPath1">
      <path
         style="fill:#b3b3b3;fill-opacity:1;stroke:none;display:inline"
         d="M 392,554.68816 L 392,477.01413 L 410,507.30686 C 419.9,523.96786 428,537.749 428,537.9316 C 428,538.11421 432.5,545.6888 438,554.76403 C 443.5,563.83926 448,571.51144 448,571.81332 C 448,572.11519 444.86209,572.36218 441.02687,572.36218 L 434.05375,572.36218 L 429.47397,564.61218 C 426.95509,560.34968 423.19314,554.16218 421.11409,550.86218 C 419.03503,547.56218 415.83608,542.16218 414.0053,538.86218 C 412.17453,535.56218 409.40793,530.83718 407.85731,528.36218 L 405.038,523.86218 L 405.019,578.11218 L 405,632.36218 L 398.5,632.36218 L 392,632.36218 L 392,554.68816 z M 127.5,572.36414 C 121.30278,571.06964 118.5275,569.76422 114.55218,566.27385 C 106.73393,559.40933 105,551.89222 105,524.86218 C 105,504.66657 105.98354,496.27494 109.05654,490.25135 C 111.39441,485.66876 117.75371,480.13961 122.72503,478.36717 C 127.80757,476.55508 187.90017,475.72719 198.2124,477.32718 C 212.77562,479.58675 220.60287,486.89104 221.72528,499.26913 L 222.27778,505.36218 L 216.27818,505.36218 L 210.27858,505.36218 L 209.67143,500.2357 C 208.91243,493.82713 206.8733,490.6528 202.17222,488.5616 C 199.11649,487.2023 193.55809,486.86514 169.06293,486.55327 C 152.87254,486.34714 137.25775,486.47435 134.36339,486.83598 C 127.61684,487.67891 123.07902,490.73216 120.25,496.33214 C 118.10229,500.58347 118,501.88056 118,524.86218 C 118,547.8438 118.10229,549.14089 120.25,553.39222 C 123.07476,558.98376 127.62215,562.0501 134.30046,562.86653 C 137.16021,563.21613 153,563.35818 169.5,563.18218 C 197.37528,562.88484 199.74048,562.72053 202.89547,560.86218 C 209.02839,557.24977 210.45888,554.26945 210.8495,544.29054 L 211.199,535.36218 L 186.5995,535.36218 L 162,535.36218 L 162,530.36218 L 162,525.36218 L 193,525.36218 L 224,525.36218 L 224,535.17852 C 224,556.63537 218.92522,567.65739 207.27733,571.49883 C 202.81722,572.96977 133.97411,573.71648 127.5,572.36414 z M 556,524.86218 L 556,477.36218 L 562.5,477.36218 L 569,477.36218 L 569,519.86218 L 569,562.36218 L 606,562.36218 L 643,562.36218 L 643,567.36218 L 643,572.36218 L 599.5,572.36218 L 556,572.36218 L 556,524.86218 z"
         id="path9819"
         sodipodi:nodetypes="cccssscccssccccccccssssscccccssssssssscccccccccscccccccccccccc"
         transform="translate(-58,-401.36218)" />
    </clipPath>
    <filter
       y="-0.5"
       x="-0.5"
       width="2"
       height="2"
       id="filtert">
      <feGaussianBlur
         id="feGaussianBlur10934"
         stdDeviation="5.0" />
    </filter>
    <clipPath
       id="clipPathI">
      <path
         id="path9821"
         d="M 366.75854,577.93696 L 366.5,523.51174 L 355,542.9682 C 348.675,553.66925 342.17066,564.6606 340.54591,567.39342 L 337.59183,572.36218 L 330.1809,572.36218 L 322.76998,572.36218 L 324.21316,570.11218 C 327.78705,564.54029 339.28977,545.23071 358.01915,513.36218 C 369.1709,494.38718 378.67867,478.43468 379.14753,477.91218 C 379.61833,477.38752 380,511.75062 380,554.66218 L 380,632.36218 L 373.50854,632.36218 L 367.01708,632.36218 L 366.75854,577.93696 z M 246,538.86218 L 246,505.36218 L 251,505.36218 L 256,505.36218 L 256,509.70734 L 256,514.05251 L 259.95648,510.2888 C 265.35126,505.15687 271.19311,503.95223 287.64842,504.57851 C 301.17407,505.09329 306.31901,506.43434 310.75442,510.60119 C 313.78017,513.44374 316,521.24825 316,529.04368 L 316,535.36218 L 310.63437,535.36218 L 305.26873,535.36218 L 304.76134,528.27073 C 303.84762,515.50025 299.61318,513.05123 279.32251,513.55803 C 266.12582,513.88764 264.14879,514.60666 259.56179,520.74473 C 257.6326,523.32628 257.48073,525.07481 257.20031,547.93295 L 256.90063,572.36218 L 251.45031,572.36218 L 246,572.36218 L 246,538.86218 z M 456,524.86218 L 456,477.36218 L 462.5,477.36218 L 469,477.36218 L 469,519.86218 L 469,562.36218 L 506,562.36218 L 543,562.36218 L 543,567.36218 L 543,572.36218 L 499.5,572.36218 L 456,572.36218 L 456,524.86218 z"
         style="fill:#b3b3b3;fill-opacity:1;stroke:none;display:inline"
         sodipodi:nodetypes="ccccccccssccccccccccccsscccccsscccccccccccccccccc"
         transform="translate(-58,-401.36218)" />
    </clipPath>
    <filter
       y="-0.5"
       x="-0.5"
       width="2"
       height="2"
       id="filterq">
      <feGaussianBlur
         id="feGaussianBlur10939"
         stdDeviation="5.0" />
    </filter>
    <filter
       inkscape:collect="always"
       id="filter11178">
      <feBlend
         inkscape:collect="always"
         mode="multiply"
         in2="BackgroundImage"
         id="feBlend11180" />
    </filter>
  </defs>
  <metadata
     id="metadata7">
    <rdf:RDF>
      <cc:Work
         rdf:about="">
        <dc:format>image/svg+xml</dc:format>
        <dc:type
           rdf:resource="http://purl.org/dc/dcmitype/StillImage" />
      </cc:Work>
    </rdf:RDF>
  </metadata>
  <g
     style="display:none"
     inkscape:groupmode="layer"
     id="layer6"
     inkscape:label="Background"
     transform="translate(-27.6705,-131.79764)">
    <rect
       style="opacity:0.95999995;fill:#000000;fill-opacity:1;stroke:none"
       id="rect3841"
       width="584.93066"
       height="184.34692"
       x="27.6705"
       y="131.79764"
       inkscape:export-xdpi="98.473213"
       inkscape:export-ydpi="98.473213" />
  </g>
  <g
     style="display:inline"
     inkscape:label="Glow"
     id="layer5"
     inkscape:groupmode="layer"
     transform="translate(-24.6705,-62.797641)">
    <path
       id="path8110"
       d="M 334,75.65625 L 334,153.3125 L 334,231 L 340.5,231 L 347,231 L 347.03125,176.75 L 347.03125,122.5 L 349.84375,127 C 351.39437,129.475 354.16922,134.2 356,137.5 C 357.83078,140.8 361.04592,146.2 363.125,149.5 C 365.20405,152.8 368.94987,158.9875 371.46875,163.25 L 376.0625,171 L 383.03125,171 C 386.86647,171 390,170.73937 390,170.4375 C 390,170.13562 385.5,162.48147 380,153.40625 C 374.5,144.33102 370,136.7451 370,136.5625 C 370,136.3799 361.9,122.5985 352,105.9375 L 334,75.65625 z"
       style="opacity:0.40740739;fill:#ffffff;fill-opacity:1;stroke:none;display:inline;filter:url(#filter9150)" />
    <path
       id="path8104"
       d="M 321.15625,76.5625 C 320.68739,77.085 311.18298,93.025 300.03125,112 C 281.30187,143.86853 269.79263,163.17811 266.21875,168.75 L 264.78125,171 L 272.1875,171 L 279.59375,171 L 282.53125,166.03125 C 284.156,163.29843 290.675,152.2948 297,141.59375 L 308.5,122.15625 L 308.75,176.5625 L 309.03125,231 L 315.5,231 L 322,231 L 322,153.3125 C 322,110.40094 321.62706,76.037837 321.15625,76.5625 z"
       style="opacity:0.40740739;fill:#ffffff;fill-opacity:1;stroke:none;display:inline;filter:url(#filter9146)" />
    <path
       id="path8112"
       d="M 113.125,75.125 C 92.555404,75.136189 67.895338,75.867444 64.71875,77 C 59.74743,78.77244 53.400369,84.292412 51.0625,88.875 C 47.9895,94.89859 47,103.30439 47,123.5 C 47,150.53004 48.744249,158.04173 56.5625,164.90625 C 60.53782,168.39662 63.30278,169.70551 69.5,171 C 75.97411,172.35234 144.82114,171.59595 149.28125,170.125 C 160.92914,166.28356 166,155.26934 166,133.8125 L 166,124 L 135,124 L 104,124 L 104,129 L 104,134 L 128.59375,134 L 153.1875,134 L 152.84375,142.9375 C 152.45313,152.91641 151.03916,155.88759 144.90625,159.5 C 141.75126,161.35835 139.37528,161.51515 111.5,161.8125 C 95,161.9885 79.172249,161.8496 76.3125,161.5 C 69.63419,160.68357 65.07476,157.62279 62.25,152.03125 C 60.10229,147.77992 60,146.48162 60,123.5 C 60,100.51838 60.10229,99.220077 62.25,94.96875 C 65.07902,89.36877 69.628452,86.311679 76.375,85.46875 C 79.26936,85.10712 94.872113,84.981367 111.0625,85.1875 C 135.55766,85.49937 141.13176,85.828203 144.1875,87.1875 C 148.88858,89.2787 150.89725,92.46643 151.65625,98.875 L 152.28125,104 L 158.28125,104 L 164.28125,104 L 163.71875,97.90625 C 162.59634,85.52816 154.78197,78.228324 140.21875,75.96875 C 136.35166,75.368754 125.46676,75.118287 113.125,75.125 z"
       style="opacity:0.54166667;fill:#ffffff;fill-opacity:1;stroke:none;display:inline;filter:url(#filter8908)" />
    <path
       id="path8108"
       d="M 398,76 L 398,123.5 L 398,171 L 441.5,171 L 485,171 L 485,166 L 485,161 L 448,161 L 411,161 L 411,118.5 L 411,76 L 404.5,76 L 398,76 z"
       style="opacity:0.54166667;fill:#ffffff;fill-opacity:1;stroke:none;display:inline;filter:url(#filter8904)" />
    <path
       id="path8106"
       d="M 498,76 L 498,123.5 L 498,171 L 541.5,171 L 585,171 L 585,166 L 585,161 L 548,161 L 511,161 L 511,118.5 L 511,76 L 504.5,76 L 498,76 z"
       style="opacity:0.54166667;fill:#ffffff;fill-opacity:1;stroke:none;display:inline;filter:url(#filter8900)" />
    <path
       id="path7260"
       d="M 221.4375,103.0625 C 211.01095,103.17139 206.35201,104.76781 201.96875,108.9375 L 198,112.6875 L 198,108.34375 L 198,104 L 193,104 L 188,104 L 188,137.5 L 188,171 L 193.4375,171 L 198.90625,171 L 199.1875,146.5625 C 199.46792,123.70436 199.63332,121.95655 201.5625,119.375 C 206.1495,113.23693 208.11581,112.51711 221.3125,112.1875 C 241.60317,111.6807 245.83628,114.13577 246.75,126.90625 L 247.28125,134 L 252.625,134 L 258,134 L 258,127.6875 C 258,119.89207 255.77574,112.09255 252.75,109.25 C 248.31459,105.08315 243.1819,103.73353 229.65625,103.21875 C 226.57088,103.10132 223.84363,103.03737 221.4375,103.0625 z"
       style="opacity:0.54166667;fill:#ffffff;fill-opacity:1;stroke:none;display:inline;filter:url(#filter8896)" />
  </g>
  <g
     inkscape:label="Text"
     inkscape:groupmode="layer"
     id="layer1"
     transform="translate(-82.6705,-464.15982)"
     style="display:inline">
    <path
       style="fill:#000080;fill-opacity:1;stroke:none"
       d="M 392,554.68816 L 392,477.01413 L 410,507.30686 C 419.9,523.96786 428,537.749 428,537.9316 C 428,538.11421 432.5,545.6888 438,554.76403 C 443.5,563.83926 448,571.51144 448,571.81332 C 448,572.11519 444.86209,572.36218 441.02687,572.36218 L 434.05375,572.36218 L 429.47397,564.61218 C 426.95509,560.34968 423.19314,554.16218 421.11409,550.86218 C 419.03503,547.56218 415.83608,542.16218 414.0053,538.86218 C 412.17453,535.56218 409.40793,530.83718 407.85731,528.36218 L 405.038,523.86218 L 405.019,578.11218 L 405,632.36218 L 398.5,632.36218 L 392,632.36218 L 392,554.68816 z M 127.5,572.36414 C 121.30278,571.06964 118.5275,569.76422 114.55218,566.27385 C 106.73393,559.40933 105,551.89222 105,524.86218 C 105,504.66657 105.98354,496.27494 109.05654,490.25135 C 111.39441,485.66876 117.75371,480.13961 122.72503,478.36717 C 127.80757,476.55508 187.90017,475.72719 198.2124,477.32718 C 212.77562,479.58675 220.60287,486.89104 221.72528,499.26913 L 222.27778,505.36218 L 216.27818,505.36218 L 210.27858,505.36218 L 209.67143,500.2357 C 208.91243,493.82713 206.8733,490.6528 202.17222,488.5616 C 199.11649,487.2023 193.55809,486.86514 169.06293,486.55327 C 152.87254,486.34714 137.25775,486.47435 134.36339,486.83598 C 127.61684,487.67891 123.07902,490.73216 120.25,496.33214 C 118.10229,500.58347 118,501.88056 118,524.86218 C 118,547.8438 118.10229,549.14089 120.25,553.39222 C 123.07476,558.98376 127.62215,562.0501 134.30046,562.86653 C 137.16021,563.21613 153,563.35818 169.5,563.18218 C 197.37528,562.88484 199.74048,562.72053 202.89547,560.86218 C 209.02839,557.24977 210.45888,554.26945 210.8495,544.29054 L 211.199,535.36218 L 186.5995,535.36218 L 162,535.36218 L 162,530.36218 L 162,525.36218 L 193,525.36218 L 224,525.36218 L 224,535.17852 C 224,556.63537 218.92522,567.65739 207.27733,571.49883 C 202.81722,572.96977 133.97411,573.71648 127.5,572.36414 z M 556,524.86218 L 556,477.36218 L 562.5,477.36218 L 569,477.36218 L 569,519.86218 L 569,562.36218 L 606,562.36218 L 643,562.36218 L 643,567.36218 L 643,572.36218 L 599.5,572.36218 L 556,572.36218 L 556,524.86218 z"
       id="path6932"
       sodipodi:nodetypes="cccssscccssccccccccssssscccccssssssssscccccccccscccccccccccccc" />
    <path
       id="path6934"
       d="M 366.75854,577.93696 L 366.5,523.51174 L 355,542.9682 C 348.675,553.66925 342.17066,564.6606 340.54591,567.39342 L 337.59183,572.36218 L 330.1809,572.36218 L 322.76998,572.36218 L 324.21316,570.11218 C 327.78705,564.54029 339.28977,545.23071 358.01915,513.36218 C 369.1709,494.38718 378.67867,478.43468 379.14753,477.91218 C 379.61833,477.38752 380,511.75062 380,554.66218 L 380,632.36218 L 373.50854,632.36218 L 367.01708,632.36218 L 366.75854,577.93696 z M 246,538.86218 L 246,505.36218 L 251,505.36218 L 256,505.36218 L 256,509.70734 L 256,514.05251 L 259.95648,510.2888 C 265.35126,505.15687 271.19311,503.95223 287.64842,504.57851 C 301.17407,505.09329 306.31901,506.43434 310.75442,510.60119 C 313.78017,513.44374 316,521.24825 316,529.04368 L 316,535.36218 L 310.63437,535.36218 L 305.26873,535.36218 L 304.76134,528.27073 C 303.84762,515.50025 299.61318,513.05123 279.32251,513.55803 C 266.12582,513.88764 264.14879,514.60666 259.56179,520.74473 C 257.6326,523.32628 257.48073,525.07481 257.20031,547.93295 L 256.90063,572.36218 L 251.45031,572.36218 L 246,572.36218 L 246,538.86218 z M 456,524.86218 L 456,477.36218 L 462.5,477.36218 L 469,477.36218 L 469,519.86218 L 469,562.36218 L 506,562.36218 L 543,562.36218 L 543,567.36218 L 543,572.36218 L 499.5,572.36218 L 456,572.36218 L 456,524.86218 z"
       style="fill:#fffc00;fill-opacity:1;stroke:none"
       sodipodi:nodetypes="ccccccccssccccccccccccsscccccsscccccccccccccccccc" />
    <g
       id="g7077">
      <g
         id="g6936"
         clip-path="url(#clipPath)">
        <g
           id="g6938">
          <path
             sodipodi:nodetypes="ccccccccssccccccccccccsscccccsscccccccccccccccccc"
             style="fill:none;stroke:#dadada;stroke-width:10;stroke-opacity:1;filter:url(#filter)"
             d="M 287.64842,504.57851 C 301.17407,505.09329 306.31901,506.43434 310.75442,510.60119 M 310.75442,510.60119 C 313.78017,513.44374 316,521.24825 316,529.04368"
             id="path6940" />
          <path
             sodipodi:nodetypes="ccccccccssccccccccccccsscccccsscccccccccccccccccc"
             style="fill:none;stroke:#c7c7c7;stroke-width:10;stroke-opacity:1;filter:url(#filter)"
             d="M 379.14753,477.91218 C 379.61833,477.38752 380,511.75062 380,554.66218 M 380,554.66218 L 380,632.36218 M 256,505.36218 L 256,509.70734 M 256,509.70734 L 256,514.05251 M 316,529.04368 L 316,535.36218 M 469,477.36218 L 469,519.86218 M 469,519.86218 L 469,562.36218 M 543,562.36218 L 543,567.36218 M 543,567.36218 L 543,572.36218"
             id="path6942" />
          <path
             sodipodi:nodetypes="ccccccccssccccccccccccsscccccsscccccccccccccccccc"
             style="fill:none;stroke:#bdbdbd;stroke-width:10;stroke-opacity:1;filter:url(#filter)"
             d="M 246,505.36218 L 251,505.36218 M 251,505.36218 L 256,505.36218 M 259.56179,520.74473 C 257.6326,523.32628 257.48073,525.07481 257.20031,547.93295 M 257.20031,547.93295 L 256.90063,572.36218 M 456,477.36218 L 462.5,477.36218 M 462.5,477.36218 L 469,477.36218 M 469,562.36218 L 506,562.36218 M 506,562.36218 L 543,562.36218"
             id="path6944" />
          <path
             sodipodi:nodetypes="ccccccccssccccccccccccsscccccsscccccccccccccccccc"
             style="fill:none;stroke:#b4b4b4;stroke-width:10;stroke-opacity:1;filter:url(#filter)"
             d="M 259.95648,510.2888 C 265.35126,505.15687 271.19311,503.95223 287.64842,504.57851"
             id="path6946" />
          <path
             sodipodi:nodetypes="ccccccccssccccccccccccsscccccsscccccccccccccccccc"
             style="fill:none;stroke:#989898;stroke-width:10;stroke-opacity:1;filter:url(#filter)"
             d="M 366.5,523.51174 L 355,542.9682 M 355,542.9682 C 348.675,553.66925 342.17066,564.6606 340.54591,567.39342 M 340.54591,567.39342 L 337.59183,572.36218"
             id="path6948" />
          <path
             sodipodi:nodetypes="ccccccccssccccccccccccsscccccsscccccccccccccccccc"
             style="fill:none;stroke:#858585;stroke-width:10;stroke-opacity:1;filter:url(#filter)"
             d="M 256,514.05251 L 259.95648,510.2888"
             id="path6950" />
          <path
             sodipodi:nodetypes="ccccccccssccccccccccccsscccccsscccccccccccccccccc"
             style="fill:none;stroke:#727272;stroke-width:10;stroke-opacity:1;filter:url(#filter)"
             d="M 322.76998,572.36218 L 324.21316,570.11218"
             id="path6952" />
          <path
             sodipodi:nodetypes="ccccccccssccccccccccccsscccccsscccccccccccccccccc"
             style="fill:none;stroke:#686868;stroke-width:10;stroke-opacity:1;filter:url(#filter)"
             d="M 324.21316,570.11218 C 327.78705,564.54029 339.28977,545.23071 358.01915,513.36218 M 358.01915,513.36218 C 369.1709,494.38718 378.67867,478.43468 379.14753,477.91218"
             id="path6954" />
          <path
             sodipodi:nodetypes="ccccccccssccccccccccccsscccccsscccccccccccccccccc"
             style="fill:none;stroke:#5f5f5f;stroke-width:10;stroke-opacity:1;filter:url(#filter)"
             d="M 279.32251,513.55803 C 266.12582,513.88764 264.14879,514.60666 259.56179,520.74473"
             id="path6956" />
          <path
             sodipodi:nodetypes="ccccccccssccccccccccccsscccccsscccccccccccccccccc"
             style="fill:none;stroke:#434343;stroke-width:10;stroke-opacity:1;filter:url(#filter)"
             d="M 337.59183,572.36218 L 330.1809,572.36218 M 330.1809,572.36218 L 322.76998,572.36218 M 380,632.36218 L 373.50854,632.36218 M 373.50854,632.36218 L 367.01708,632.36218 M 316,535.36218 L 310.63437,535.36218 M 310.63437,535.36218 L 305.26873,535.36218 M 256.90063,572.36218 L 251.45031,572.36218 M 251.45031,572.36218 L 246,572.36218 M 543,572.36218 L 499.5,572.36218 M 499.5,572.36218 L 456,572.36218"
             id="path6958" />
          <path
             sodipodi:nodetypes="ccccccccssccccccccccccsscccccsscccccccccccccccccc"
             style="fill:none;stroke:#393939;stroke-width:10;stroke-opacity:1;filter:url(#filter)"
             d="M 366.75854,577.93696 L 366.5,523.51174 M 367.01708,632.36218 L 366.75854,577.93696 M 246,538.86218 L 246,505.36218 M 305.26873,535.36218 L 304.76134,528.27073 M 246,572.36218 L 246,538.86218 M 456,524.86218 L 456,477.36218 M 456,572.36218 L 456,524.86218"
             id="path6960" />
          <path
             sodipodi:nodetypes="ccccccccssccccccccccccsscccccsscccccccccccccccccc"
             style="fill:none;stroke:#131313;stroke-width:10;stroke-opacity:1;filter:url(#filter)"
             d="M 304.76134,528.27073 C 303.84762,515.50025 299.61318,513.05123 279.32251,513.55803"
             id="path6962" />
        </g>
      </g>
      <g
         id="g6964"
         clip-path="url(#clipPathR)">
        <g
           id="g6966">
          <path
             sodipodi:nodetypes="cccssscccssccccccccssssscccccssssssssscccccccccscccccccccccccc"
             id="path6968"
             d="M 198.2124,477.32718 C 212.77562,479.58675 220.60287,486.89104 221.72528,499.26913"
             style="fill:none;stroke:#ffffff;stroke-width:10;stroke-opacity:1;filter:url(#filteri)" />
          <path
             sodipodi:nodetypes="cccssscccssccccccccssssscccccssssssssscccccccccscccccccccccccc"
             id="path6970"
             d="M 120.25,553.39222 C 123.07476,558.98376 127.62215,562.0501 134.30046,562.86653"
             style="fill:none;stroke:#f6f6f6;stroke-width:10;stroke-opacity:1;filter:url(#filteri)" />
          <path
             sodipodi:nodetypes="cccssscccssccccccccssssscccccssssssssscccccccccscccccccccccccc"
             id="path6972"
             d="M 392,477.01413 L 410,507.30686 M 410,507.30686 C 419.9,523.96786 428,537.749 428,537.9316 M 428,537.9316 C 428,538.11421 432.5,545.6888 438,554.76403 M 438,554.76403 C 443.5,563.83926 448,571.51144 448,571.81332"
             style="fill:none;stroke:#ededed;stroke-width:10;stroke-opacity:1;filter:url(#filteri)" />
          <path
             sodipodi:nodetypes="cccssscccssccccccccssssscccccssssssssscccccccccscccccccccccccc"
             id="path6974"
             d="M 221.72528,499.26913 L 222.27778,505.36218 M 118,524.86218 C 118,547.8438 118.10229,549.14089 120.25,553.39222 M 134.30046,562.86653 C 137.16021,563.21613 153,563.35818 169.5,563.18218 M 224,525.36218 L 224,535.17852 M 569,477.36218 L 569,519.86218 M 569,519.86218 L 569,562.36218 M 643,562.36218 L 643,567.36218 M 643,567.36218 L 643,572.36218"
             style="fill:none;stroke:#c7c7c7;stroke-width:10;stroke-opacity:1;filter:url(#filteri)" />
          <path
             sodipodi:nodetypes="cccssscccssccccccccssssscccccssssssssscccccccccscccccccccccccc"
             id="path6976"
             d="M 405.038,523.86218 L 405.019,578.11218 M 405.019,578.11218 L 405,632.36218 M 122.72503,478.36717 C 127.80757,476.55508 187.90017,475.72719 198.2124,477.32718 M 120.25,496.33214 C 118.10229,500.58347 118,501.88056 118,524.86218 M 169.5,563.18218 C 197.37528,562.88484 199.74048,562.72053 202.89547,560.86218 M 162,525.36218 L 193,525.36218 M 193,525.36218 L 224,525.36218 M 556,477.36218 L 562.5,477.36218 M 562.5,477.36218 L 569,477.36218 M 569,562.36218 L 606,562.36218 M 606,562.36218 L 643,562.36218"
             style="fill:none;stroke:#bdbdbd;stroke-width:10;stroke-opacity:1;filter:url(#filteri)" />
          <path
             sodipodi:nodetypes="cccssscccssccccccccssssscccccssssssssscccccccccscccccccccccccc"
             id="path6978"
             d="M 224,535.17852 C 224,556.63537 218.92522,567.65739 207.27733,571.49883"
             style="fill:none;stroke:#a1a1a1;stroke-width:10;stroke-opacity:1;filter:url(#filteri)" />
          <path
             sodipodi:nodetypes="cccssscccssccccccccssssscccccssssssssscccccccccscccccccccccccc"
             id="path6980"
             d="M 109.05654,490.25135 C 111.39441,485.66876 117.75371,480.13961 122.72503,478.36717"
             style="fill:none;stroke:#858585;stroke-width:10;stroke-opacity:1;filter:url(#filteri)" />
          <path
             sodipodi:nodetypes="cccssscccssccccccccssssscccccssssssssscccccccccscccccccccccccc"
             id="path6982"
             d="M 134.36339,486.83598 C 127.61684,487.67891 123.07902,490.73216 120.25,496.33214"
             style="fill:none;stroke:#727272;stroke-width:10;stroke-opacity:1;filter:url(#filteri)" />
          <path
             sodipodi:nodetypes="cccssscccssccccccccssssscccccssssssssscccccccccscccccccccccccc"
             id="path6984"
             d="M 202.89547,560.86218 C 209.02839,557.24977 210.45888,554.26945 210.8495,544.29054"
             style="fill:none;stroke:#5f5f5f;stroke-width:10;stroke-opacity:1;filter:url(#filteri)" />
          <path
             sodipodi:nodetypes="cccssscccssccccccccssssscccccssssssssscccccccccscccccccccccccc"
             id="path6986"
             d="M 105,524.86218 C 105,504.66657 105.98354,496.27494 109.05654,490.25135"
             style="fill:none;stroke:#4c4c4c;stroke-width:10;stroke-opacity:1;filter:url(#filteri)" />
          <path
             sodipodi:nodetypes="cccssscccssccccccccssssscccccssssssssscccccccccscccccccccccccc"
             id="path6988"
             d="M 448,571.81332 C 448,572.11519 444.86209,572.36218 441.02687,572.36218 M 441.02687,572.36218 L 434.05375,572.36218 M 405,632.36218 L 398.5,632.36218 M 398.5,632.36218 L 392,632.36218 M 222.27778,505.36218 L 216.27818,505.36218 M 216.27818,505.36218 L 210.27858,505.36218 M 169.06293,486.55327 C 152.87254,486.34714 137.25775,486.47435 134.36339,486.83598 M 210.8495,544.29054 L 211.199,535.36218 M 211.199,535.36218 L 186.5995,535.36218 M 186.5995,535.36218 L 162,535.36218 M 207.27733,571.49883 C 202.81722,572.96977 133.97411,573.71648 127.5,572.36414 M 643,572.36218 L 599.5,572.36218 M 599.5,572.36218 L 556,572.36218"
             style="fill:none;stroke:#434343;stroke-width:10;stroke-opacity:1;filter:url(#filteri)" />
          <path
             sodipodi:nodetypes="cccssscccssccccccccssssscccccssssssssscccccccccscccccccccccccc"
             id="path6990"
             d="M 392,554.68816 L 392,477.01413 M 392,632.36218 L 392,554.68816 M 202.17222,488.5616 C 199.11649,487.2023 193.55809,486.86514 169.06293,486.55327 M 162,535.36218 L 162,530.36218 M 162,530.36218 L 162,525.36218 M 556,524.86218 L 556,477.36218 M 556,572.36218 L 556,524.86218"
             style="fill:none;stroke:#393939;stroke-width:10;stroke-opacity:1;filter:url(#filteri)" />
          <path
             sodipodi:nodetypes="cccssscccssccccccccssssscccccssssssssscccccccccscccccccccccccc"
             id="path6992"
             d="M 210.27858,505.36218 L 209.67143,500.2357"
             style="fill:none;stroke:#303030;stroke-width:10;stroke-opacity:1;filter:url(#filteri)" />
          <path
             sodipodi:nodetypes="cccssscccssccccccccssssscccccssssssssscccccccccscccccccccccccc"
             id="path6994"
             d="M 114.55218,566.27385 C 106.73393,559.40933 105,551.89222 105,524.86218"
             style="fill:none;stroke:#262626;stroke-width:10;stroke-opacity:1;filter:url(#filteri)" />
          <path
             sodipodi:nodetypes="cccssscccssccccccccssssscccccssssssssscccccccccscccccccccccccc"
             id="path6996"
             d="M 127.5,572.36414 C 121.30278,571.06964 118.5275,569.76422 114.55218,566.27385"
             style="fill:none;stroke:#1d1d1d;stroke-width:10;stroke-opacity:1;filter:url(#filteri)" />
          <path
             sodipodi:nodetypes="cccssscccssccccccccssssscccccssssssssscccccccccscccccccccccccc"
             id="path6998"
             d="M 434.05375,572.36218 L 429.47397,564.61218 M 429.47397,564.61218 C 426.95509,560.34968 423.19314,554.16218 421.11409,550.86218 M 421.11409,550.86218 C 419.03503,547.56218 415.83608,542.16218 414.0053,538.86218 M 414.0053,538.86218 C 412.17453,535.56218 409.40793,530.83718 407.85731,528.36218 M 407.85731,528.36218 L 405.038,523.86218"
             style="fill:none;stroke:#131313;stroke-width:10;stroke-opacity:1;filter:url(#filteri)" />
          <path
             sodipodi:nodetypes="cccssscccssccccccccssssscccccssssssssscccccccccscccccccccccccc"
             id="path7000"
             d="M 209.67143,500.2357 C 208.91243,493.82713 206.8733,490.6528 202.17222,488.5616"
             style="fill:none;stroke:#0a0a0a;stroke-width:10;stroke-opacity:1;filter:url(#filteri)" />
        </g>
      </g>
    </g>
    <path
       sodipodi:nodetypes="cccssscccssccccccccssssscccccssssssssscccccccccscccccccccccccc"
       id="path7254"
       d="M 392,554.68816 L 392,477.01413 L 410,507.30686 C 419.9,523.96786 428,537.749 428,537.9316 C 428,538.11421 432.5,545.6888 438,554.76403 C 443.5,563.83926 448,571.51144 448,571.81332 C 448,572.11519 444.86209,572.36218 441.02687,572.36218 L 434.05375,572.36218 L 429.47397,564.61218 C 426.95509,560.34968 423.19314,554.16218 421.11409,550.86218 C 419.03503,547.56218 415.83608,542.16218 414.0053,538.86218 C 412.17453,535.56218 409.40793,530.83718 407.85731,528.36218 L 405.038,523.86218 L 405.019,578.11218 L 405,632.36218 L 398.5,632.36218 L 392,632.36218 L 392,554.68816 z M 127.5,572.36414 C 121.30278,571.06964 118.5275,569.76422 114.55218,566.27385 C 106.73393,559.40933 105,551.89222 105,524.86218 C 105,504.66657 105.98354,496.27494 109.05654,490.25135 C 111.39441,485.66876 117.75371,480.13961 122.72503,478.36717 C 127.80757,476.55508 187.90017,475.72719 198.2124,477.32718 C 212.77562,479.58675 220.60287,486.89104 221.72528,499.26913 L 222.27778,505.36218 L 216.27818,505.36218 L 210.27858,505.36218 L 209.67143,500.2357 C 208.91243,493.82713 206.8733,490.6528 202.17222,488.5616 C 199.11649,487.2023 193.55809,486.86514 169.06293,486.55327 C 152.87254,486.34714 137.25775,486.47435 134.36339,486.83598 C 127.61684,487.67891 123.07902,490.73216 120.25,496.33214 C 118.10229,500.58347 118,501.88056 118,524.86218 C 118,547.8438 118.10229,549.14089 120.25,553.39222 C 123.07476,558.98376 127.62215,562.0501 134.30046,562.86653 C 137.16021,563.21613 153,563.35818 169.5,563.18218 C 197.37528,562.88484 199.74048,562.72053 202.89547,560.86218 C 209.02839,557.24977 210.45888,554.26945 210.8495,544.29054 L 211.199,535.36218 L 186.5995,535.36218 L 162,535.36218 L 162,530.36218 L 162,525.36218 L 193,525.36218 L 224,525.36218 L 224,535.17852 C 224,556.63537 218.92522,567.65739 207.27733,571.49883 C 202.81722,572.96977 133.97411,573.71648 127.5,572.36414 z M 556,524.86218 L 556,477.36218 L 562.5,477.36218 L 569,477.36218 L 569,519.86218 L 569,562.36218 L 606,562.36218 L 643,562.36218 L 643,567.36218 L 643,572.36218 L 599.5,572.36218 L 556,572.36218 L 556,524.86218 z"
       style="fill:#000080;fill-opacity:1;stroke:none" />
    <path
       sodipodi:nodetypes="ccccccccssccccccccccccsscccccsscccccccccccccccccc"
       style="fill:#fffc00;fill-opacity:1;stroke:none"
       d="M 366.75854,577.93696 L 366.5,523.51174 L 355,542.9682 C 348.675,553.66925 342.17066,564.6606 340.54591,567.39342 L 337.59183,572.36218 L 330.1809,572.36218 L 322.76998,572.36218 L 324.21316,570.11218 C 327.78705,564.54029 339.28977,545.23071 358.01915,513.36218 C 369.1709,494.38718 378.67867,478.43468 379.14753,477.91218 C 379.61833,477.38752 380,511.75062 380,554.66218 L 380,632.36218 L 373.50854,632.36218 L 367.01708,632.36218 L 366.75854,577.93696 z M 246,538.86218 L 246,505.36218 L 251,505.36218 L 256,505.36218 L 256,509.70734 L 256,514.05251 L 259.95648,510.2888 C 265.35126,505.15687 271.19311,503.95223 287.64842,504.57851 C 301.17407,505.09329 306.31901,506.43434 310.75442,510.60119 C 313.78017,513.44374 316,521.24825 316,529.04368 L 316,535.36218 L 310.63437,535.36218 L 305.26873,535.36218 L 304.76134,528.27073 C 303.84762,515.50025 299.61318,513.05123 279.32251,513.55803 C 266.12582,513.88764 264.14879,514.60666 259.56179,520.74473 C 257.6326,523.32628 257.48073,525.07481 257.20031,547.93295 L 256.90063,572.36218 L 251.45031,572.36218 L 246,572.36218 L 246,538.86218 z M 456,524.86218 L 456,477.36218 L 462.5,477.36218 L 469,477.36218 L 469,519.86218 L 469,562.36218 L 506,562.36218 L 543,562.36218 L 543,567.36218 L 543,572.36218 L 499.5,572.36218 L 456,572.36218 L 456,524.86218 z"
       id="path7256" />
  </g>
  <g
     style="opacity:1;display:inline;filter:url(#filter11178)"
     inkscape:label="Bevel"
     id="layer7"
     inkscape:groupmode="layer"
     transform="translate(-24.6705,-62.797641)">
    <path
       sodipodi:nodetypes="cccssscccssccccccccssssscccccssssssssscccccccccscccccccccccccc"
       id="path9747"
       d="M 392,554.68816 L 392,477.01413 L 410,507.30686 C 419.9,523.96786 428,537.749 428,537.9316 C 428,538.11421 432.5,545.6888 438,554.76403 C 443.5,563.83926 448,571.51144 448,571.81332 C 448,572.11519 444.86209,572.36218 441.02687,572.36218 L 434.05375,572.36218 L 429.47397,564.61218 C 426.95509,560.34968 423.19314,554.16218 421.11409,550.86218 C 419.03503,547.56218 415.83608,542.16218 414.0053,538.86218 C 412.17453,535.56218 409.40793,530.83718 407.85731,528.36218 L 405.038,523.86218 L 405.019,578.11218 L 405,632.36218 L 398.5,632.36218 L 392,632.36218 L 392,554.68816 z M 127.5,572.36414 C 121.30278,571.06964 118.5275,569.76422 114.55218,566.27385 C 106.73393,559.40933 105,551.89222 105,524.86218 C 105,504.66657 105.98354,496.27494 109.05654,490.25135 C 111.39441,485.66876 117.75371,480.13961 122.72503,478.36717 C 127.80757,476.55508 187.90017,475.72719 198.2124,477.32718 C 212.77562,479.58675 220.60287,486.89104 221.72528,499.26913 L 222.27778,505.36218 L 216.27818,505.36218 L 210.27858,505.36218 L 209.67143,500.2357 C 208.91243,493.82713 206.8733,490.6528 202.17222,488.5616 C 199.11649,487.2023 193.55809,486.86514 169.06293,486.55327 C 152.87254,486.34714 137.25775,486.47435 134.36339,486.83598 C 127.61684,487.67891 123.07902,490.73216 120.25,496.33214 C 118.10229,500.58347 118,501.88056 118,524.86218 C 118,547.8438 118.10229,549.14089 120.25,553.39222 C 123.07476,558.98376 127.62215,562.0501 134.30046,562.86653 C 137.16021,563.21613 153,563.35818 169.5,563.18218 C 197.37528,562.88484 199.74048,562.72053 202.89547,560.86218 C 209.02839,557.24977 210.45888,554.26945 210.8495,544.29054 L 211.199,535.36218 L 186.5995,535.36218 L 162,535.36218 L 162,530.36218 L 162,525.36218 L 193,525.36218 L 224,525.36218 L 224,535.17852 C 224,556.63537 218.92522,567.65739 207.27733,571.49883 C 202.81722,572.96977 133.97411,573.71648 127.5,572.36414 z M 556,524.86218 L 556,477.36218 L 562.5,477.36218 L 569,477.36218 L 569,519.86218 L 569,562.36218 L 606,562.36218 L 643,562.36218 L 643,567.36218 L 643,572.36218 L 599.5,572.36218 L 556,572.36218 L 556,524.86218 z"
       style="fill:#000080;fill-opacity:1;stroke:none;display:inline"
       transform="translate(-58,-401.36218)" />
    <path
       sodipodi:nodetypes="ccccccccssccccccccccccsscccccsscccccccccccccccccc"
       style="fill:#fffc00;fill-opacity:1;stroke:none;display:inline"
       d="M 366.75854,577.93696 L 366.5,523.51174 L 355,542.9682 C 348.675,553.66925 342.17066,564.6606 340.54591,567.39342 L 337.59183,572.36218 L 330.1809,572.36218 L 322.76998,572.36218 L 324.21316,570.11218 C 327.78705,564.54029 339.28977,545.23071 358.01915,513.36218 C 369.1709,494.38718 378.67867,478.43468 379.14753,477.91218 C 379.61833,477.38752 380,511.75062 380,554.66218 L 380,632.36218 L 373.50854,632.36218 L 367.01708,632.36218 L 366.75854,577.93696 z M 246,538.86218 L 246,505.36218 L 251,505.36218 L 256,505.36218 L 256,509.70734 L 256,514.05251 L 259.95648,510.2888 C 265.35126,505.15687 271.19311,503.95223 287.64842,504.57851 C 301.17407,505.09329 306.31901,506.43434 310.75442,510.60119 C 313.78017,513.44374 316,521.24825 316,529.04368 L 316,535.36218 L 310.63437,535.36218 L 305.26873,535.36218 L 304.76134,528.27073 C 303.84762,515.50025 299.61318,513.05123 279.32251,513.55803 C 266.12582,513.88764 264.14879,514.60666 259.56179,520.74473 C 257.6326,523.32628 257.48073,525.07481 257.20031,547.93295 L 256.90063,572.36218 L 251.45031,572.36218 L 246,572.36218 L 246,538.86218 z M 456,524.86218 L 456,477.36218 L 462.5,477.36218 L 469,477.36218 L 469,519.86218 L 469,562.36218 L 506,562.36218 L 543,562.36218 L 543,567.36218 L 543,572.36218 L 499.5,572.36218 L 456,572.36218 L 456,524.86218 z"
       id="path9749"
       transform="translate(-58,-401.36218)" />
    <g
       id="g9751"
       style="display:inline"
       transform="translate(-58,-401.36218)">
      <g
         clip-path="url(#clipPath)"
         id="g9753">
        <g
           id="g9755">
          <path
             id="path9757"
             d="M 287.64842,504.57851 C 301.17407,505.09329 306.31901,506.43434 310.75442,510.60119 M 310.75442,510.60119 C 313.78017,513.44374 316,521.24825 316,529.04368"
             style="fill:none;stroke:#dadada;stroke-width:10;stroke-opacity:1;filter:url(#filter)"
             sodipodi:nodetypes="ccccccccssccccccccccccsscccccsscccccccccccccccccc" />
          <path
             id="path9759"
             d="M 379.14753,477.91218 C 379.61833,477.38752 380,511.75062 380,554.66218 M 380,554.66218 L 380,632.36218 M 256,505.36218 L 256,509.70734 M 256,509.70734 L 256,514.05251 M 316,529.04368 L 316,535.36218 M 469,477.36218 L 469,519.86218 M 469,519.86218 L 469,562.36218 M 543,562.36218 L 543,567.36218 M 543,567.36218 L 543,572.36218"
             style="fill:none;stroke:#c7c7c7;stroke-width:10;stroke-opacity:1;filter:url(#filter)"
             sodipodi:nodetypes="ccccccccssccccccccccccsscccccsscccccccccccccccccc" />
          <path
             id="path9761"
             d="M 246,505.36218 L 251,505.36218 M 251,505.36218 L 256,505.36218 M 259.56179,520.74473 C 257.6326,523.32628 257.48073,525.07481 257.20031,547.93295 M 257.20031,547.93295 L 256.90063,572.36218 M 456,477.36218 L 462.5,477.36218 M 462.5,477.36218 L 469,477.36218 M 469,562.36218 L 506,562.36218 M 506,562.36218 L 543,562.36218"
             style="fill:none;stroke:#bdbdbd;stroke-width:10;stroke-opacity:1;filter:url(#filter)"
             sodipodi:nodetypes="ccccccccssccccccccccccsscccccsscccccccccccccccccc" />
          <path
             id="path9763"
             d="M 259.95648,510.2888 C 265.35126,505.15687 271.19311,503.95223 287.64842,504.57851"
             style="fill:none;stroke:#b4b4b4;stroke-width:10;stroke-opacity:1;filter:url(#filter)"
             sodipodi:nodetypes="ccccccccssccccccccccccsscccccsscccccccccccccccccc" />
          <path
             id="path9765"
             d="M 366.5,523.51174 L 355,542.9682 M 355,542.9682 C 348.675,553.66925 342.17066,564.6606 340.54591,567.39342 M 340.54591,567.39342 L 337.59183,572.36218"
             style="fill:none;stroke:#989898;stroke-width:10;stroke-opacity:1;filter:url(#filter)"
             sodipodi:nodetypes="ccccccccssccccccccccccsscccccsscccccccccccccccccc" />
          <path
             id="path9767"
             d="M 256,514.05251 L 259.95648,510.2888"
             style="fill:none;stroke:#858585;stroke-width:10;stroke-opacity:1;filter:url(#filter)"
             sodipodi:nodetypes="ccccccccssccccccccccccsscccccsscccccccccccccccccc" />
          <path
             id="path9769"
             d="M 322.76998,572.36218 L 324.21316,570.11218"
             style="fill:none;stroke:#727272;stroke-width:10;stroke-opacity:1;filter:url(#filter)"
             sodipodi:nodetypes="ccccccccssccccccccccccsscccccsscccccccccccccccccc" />
          <path
             id="path9771"
             d="M 324.21316,570.11218 C 327.78705,564.54029 339.28977,545.23071 358.01915,513.36218 M 358.01915,513.36218 C 369.1709,494.38718 378.67867,478.43468 379.14753,477.91218"
             style="fill:none;stroke:#686868;stroke-width:10;stroke-opacity:1;filter:url(#filter)"
             sodipodi:nodetypes="ccccccccssccccccccccccsscccccsscccccccccccccccccc" />
          <path
             id="path9773"
             d="M 279.32251,513.55803 C 266.12582,513.88764 264.14879,514.60666 259.56179,520.74473"
             style="fill:none;stroke:#5f5f5f;stroke-width:10;stroke-opacity:1;filter:url(#filter)"
             sodipodi:nodetypes="ccccccccssccccccccccccsscccccsscccccccccccccccccc" />
          <path
             id="path9775"
             d="M 337.59183,572.36218 L 330.1809,572.36218 M 330.1809,572.36218 L 322.76998,572.36218 M 380,632.36218 L 373.50854,632.36218 M 373.50854,632.36218 L 367.01708,632.36218 M 316,535.36218 L 310.63437,535.36218 M 310.63437,535.36218 L 305.26873,535.36218 M 256.90063,572.36218 L 251.45031,572.36218 M 251.45031,572.36218 L 246,572.36218 M 543,572.36218 L 499.5,572.36218 M 499.5,572.36218 L 456,572.36218"
             style="fill:none;stroke:#434343;stroke-width:10;stroke-opacity:1;filter:url(#filter)"
             sodipodi:nodetypes="ccccccccssccccccccccccsscccccsscccccccccccccccccc" />
          <path
             id="path9777"
             d="M 366.75854,577.93696 L 366.5,523.51174 M 367.01708,632.36218 L 366.75854,577.93696 M 246,538.86218 L 246,505.36218 M 305.26873,535.36218 L 304.76134,528.27073 M 246,572.36218 L 246,538.86218 M 456,524.86218 L 456,477.36218 M 456,572.36218 L 456,524.86218"
             style="fill:none;stroke:#393939;stroke-width:10;stroke-opacity:1;filter:url(#filter)"
             sodipodi:nodetypes="ccccccccssccccccccccccsscccccsscccccccccccccccccc" />
          <path
             id="path9779"
             d="M 304.76134,528.27073 C 303.84762,515.50025 299.61318,513.05123 279.32251,513.55803"
             style="fill:none;stroke:#131313;stroke-width:10;stroke-opacity:1;filter:url(#filter)"
             sodipodi:nodetypes="ccccccccssccccccccccccsscccccsscccccccccccccccccc" />
        </g>
      </g>
      <g
         clip-path="url(#clipPathR)"
         id="g9781">
        <g
           id="g9783">
          <path
             style="fill:none;stroke:#ffffff;stroke-width:10;stroke-opacity:1;filter:url(#filteri)"
             d="M 198.2124,477.32718 C 212.77562,479.58675 220.60287,486.89104 221.72528,499.26913"
             id="path9785"
             sodipodi:nodetypes="cccssscccssccccccccssssscccccssssssssscccccccccscccccccccccccc" />
          <path
             style="fill:none;stroke:#f6f6f6;stroke-width:10;stroke-opacity:1;filter:url(#filteri)"
             d="M 120.25,553.39222 C 123.07476,558.98376 127.62215,562.0501 134.30046,562.86653"
             id="path9787"
             sodipodi:nodetypes="cccssscccssccccccccssssscccccssssssssscccccccccscccccccccccccc" />
          <path
             style="fill:none;stroke:#ededed;stroke-width:10;stroke-opacity:1;filter:url(#filteri)"
             d="M 392,477.01413 L 410,507.30686 M 410,507.30686 C 419.9,523.96786 428,537.749 428,537.9316 M 428,537.9316 C 428,538.11421 432.5,545.6888 438,554.76403 M 438,554.76403 C 443.5,563.83926 448,571.51144 448,571.81332"
             id="path9789"
             sodipodi:nodetypes="cccssscccssccccccccssssscccccssssssssscccccccccscccccccccccccc" />
          <path
             style="fill:none;stroke:#c7c7c7;stroke-width:10;stroke-opacity:1;filter:url(#filteri)"
             d="M 221.72528,499.26913 L 222.27778,505.36218 M 118,524.86218 C 118,547.8438 118.10229,549.14089 120.25,553.39222 M 134.30046,562.86653 C 137.16021,563.21613 153,563.35818 169.5,563.18218 M 224,525.36218 L 224,535.17852 M 569,477.36218 L 569,519.86218 M 569,519.86218 L 569,562.36218 M 643,562.36218 L 643,567.36218 M 643,567.36218 L 643,572.36218"
             id="path9791"
             sodipodi:nodetypes="cccssscccssccccccccssssscccccssssssssscccccccccscccccccccccccc" />
          <path
             style="fill:none;stroke:#bdbdbd;stroke-width:10;stroke-opacity:1;filter:url(#filteri)"
             d="M 405.038,523.86218 L 405.019,578.11218 M 405.019,578.11218 L 405,632.36218 M 122.72503,478.36717 C 127.80757,476.55508 187.90017,475.72719 198.2124,477.32718 M 120.25,496.33214 C 118.10229,500.58347 118,501.88056 118,524.86218 M 169.5,563.18218 C 197.37528,562.88484 199.74048,562.72053 202.89547,560.86218 M 162,525.36218 L 193,525.36218 M 193,525.36218 L 224,525.36218 M 556,477.36218 L 562.5,477.36218 M 562.5,477.36218 L 569,477.36218 M 569,562.36218 L 606,562.36218 M 606,562.36218 L 643,562.36218"
             id="path9793"
             sodipodi:nodetypes="cccssscccssccccccccssssscccccssssssssscccccccccscccccccccccccc" />
          <path
             style="fill:none;stroke:#a1a1a1;stroke-width:10;stroke-opacity:1;filter:url(#filteri)"
             d="M 224,535.17852 C 224,556.63537 218.92522,567.65739 207.27733,571.49883"
             id="path9795"
             sodipodi:nodetypes="cccssscccssccccccccssssscccccssssssssscccccccccscccccccccccccc" />
          <path
             style="fill:none;stroke:#858585;stroke-width:10;stroke-opacity:1;filter:url(#filteri)"
             d="M 109.05654,490.25135 C 111.39441,485.66876 117.75371,480.13961 122.72503,478.36717"
             id="path9797"
             sodipodi:nodetypes="cccssscccssccccccccssssscccccssssssssscccccccccscccccccccccccc" />
          <path
             style="fill:none;stroke:#727272;stroke-width:10;stroke-opacity:1;filter:url(#filteri)"
             d="M 134.36339,486.83598 C 127.61684,487.67891 123.07902,490.73216 120.25,496.33214"
             id="path9799"
             sodipodi:nodetypes="cccssscccssccccccccssssscccccssssssssscccccccccscccccccccccccc" />
          <path
             style="fill:none;stroke:#5f5f5f;stroke-width:10;stroke-opacity:1;filter:url(#filteri)"
             d="M 202.89547,560.86218 C 209.02839,557.24977 210.45888,554.26945 210.8495,544.29054"
             id="path9801"
             sodipodi:nodetypes="cccssscccssccccccccssssscccccssssssssscccccccccscccccccccccccc" />
          <path
             style="fill:none;stroke:#4c4c4c;stroke-width:10;stroke-opacity:1;filter:url(#filteri)"
             d="M 105,524.86218 C 105,504.66657 105.98354,496.27494 109.05654,490.25135"
             id="path9803"
             sodipodi:nodetypes="cccssscccssccccccccssssscccccssssssssscccccccccscccccccccccccc" />
          <path
             style="fill:none;stroke:#434343;stroke-width:10;stroke-opacity:1;filter:url(#filteri)"
             d="M 448,571.81332 C 448,572.11519 444.86209,572.36218 441.02687,572.36218 M 441.02687,572.36218 L 434.05375,572.36218 M 405,632.36218 L 398.5,632.36218 M 398.5,632.36218 L 392,632.36218 M 222.27778,505.36218 L 216.27818,505.36218 M 216.27818,505.36218 L 210.27858,505.36218 M 169.06293,486.55327 C 152.87254,486.34714 137.25775,486.47435 134.36339,486.83598 M 210.8495,544.29054 L 211.199,535.36218 M 211.199,535.36218 L 186.5995,535.36218 M 186.5995,535.36218 L 162,535.36218 M 207.27733,571.49883 C 202.81722,572.96977 133.97411,573.71648 127.5,572.36414 M 643,572.36218 L 599.5,572.36218 M 599.5,572.36218 L 556,572.36218"
             id="path9805"
             sodipodi:nodetypes="cccssscccssccccccccssssscccccssssssssscccccccccscccccccccccccc" />
          <path
             style="fill:none;stroke:#393939;stroke-width:10;stroke-opacity:1;filter:url(#filteri)"
             d="M 392,554.68816 L 392,477.01413 M 392,632.36218 L 392,554.68816 M 202.17222,488.5616 C 199.11649,487.2023 193.55809,486.86514 169.06293,486.55327 M 162,535.36218 L 162,530.36218 M 162,530.36218 L 162,525.36218 M 556,524.86218 L 556,477.36218 M 556,572.36218 L 556,524.86218"
             id="path9807"
             sodipodi:nodetypes="cccssscccssccccccccssssscccccssssssssscccccccccscccccccccccccc" />
          <path
             style="fill:none;stroke:#303030;stroke-width:10;stroke-opacity:1;filter:url(#filteri)"
             d="M 210.27858,505.36218 L 209.67143,500.2357"
             id="path9809"
             sodipodi:nodetypes="cccssscccssccccccccssssscccccssssssssscccccccccscccccccccccccc" />
          <path
             style="fill:none;stroke:#262626;stroke-width:10;stroke-opacity:1;filter:url(#filteri)"
             d="M 114.55218,566.27385 C 106.73393,559.40933 105,551.89222 105,524.86218"
             id="path9811"
             sodipodi:nodetypes="cccssscccssccccccccssssscccccssssssssscccccccccscccccccccccccc" />
          <path
             style="fill:none;stroke:#1d1d1d;stroke-width:10;stroke-opacity:1;filter:url(#filteri)"
             d="M 127.5,572.36414 C 121.30278,571.06964 118.5275,569.76422 114.55218,566.27385"
             id="path9813"
             sodipodi:nodetypes="cccssscccssccccccccssssscccccssssssssscccccccccscccccccccccccc" />
          <path
             style="fill:none;stroke:#131313;stroke-width:10;stroke-opacity:1;filter:url(#filteri)"
             d="M 434.05375,572.36218 L 429.47397,564.61218 M 429.47397,564.61218 C 426.95509,560.34968 423.19314,554.16218 421.11409,550.86218 M 421.11409,550.86218 C 419.03503,547.56218 415.83608,542.16218 414.0053,538.86218 M 414.0053,538.86218 C 412.17453,535.56218 409.40793,530.83718 407.85731,528.36218 M 407.85731,528.36218 L 405.038,523.86218"
             id="path9815"
             sodipodi:nodetypes="cccssscccssccccccccssssscccccssssssssscccccccccscccccccccccccc" />
          <path
             style="fill:none;stroke:#0a0a0a;stroke-width:10;stroke-opacity:1;filter:url(#filteri)"
             d="M 209.67143,500.2357 C 208.91243,493.82713 206.8733,490.6528 202.17222,488.5616"
             id="path9817"
             sodipodi:nodetypes="cccssscccssccccccccssssscccccssssssssscccccccccscccccccccccccc" />
        </g>
      </g>
    </g>
    <path
       style="fill:#b3b3b3;fill-opacity:1;stroke:none;display:inline"
       d="M 392,554.68816 L 392,477.01413 L 410,507.30686 C 419.9,523.96786 428,537.749 428,537.9316 C 428,538.11421 432.5,545.6888 438,554.76403 C 443.5,563.83926 448,571.51144 448,571.81332 C 448,572.11519 444.86209,572.36218 441.02687,572.36218 L 434.05375,572.36218 L 429.47397,564.61218 C 426.95509,560.34968 423.19314,554.16218 421.11409,550.86218 C 419.03503,547.56218 415.83608,542.16218 414.0053,538.86218 C 412.17453,535.56218 409.40793,530.83718 407.85731,528.36218 L 405.038,523.86218 L 405.019,578.11218 L 405,632.36218 L 398.5,632.36218 L 392,632.36218 L 392,554.68816 z M 127.5,572.36414 C 121.30278,571.06964 118.5275,569.76422 114.55218,566.27385 C 106.73393,559.40933 105,551.89222 105,524.86218 C 105,504.66657 105.98354,496.27494 109.05654,490.25135 C 111.39441,485.66876 117.75371,480.13961 122.72503,478.36717 C 127.80757,476.55508 187.90017,475.72719 198.2124,477.32718 C 212.77562,479.58675 220.60287,486.89104 221.72528,499.26913 L 222.27778,505.36218 L 216.27818,505.36218 L 210.27858,505.36218 L 209.67143,500.2357 C 208.91243,493.82713 206.8733,490.6528 202.17222,488.5616 C 199.11649,487.2023 193.55809,486.86514 169.06293,486.55327 C 152.87254,486.34714 137.25775,486.47435 134.36339,486.83598 C 127.61684,487.67891 123.07902,490.73216 120.25,496.33214 C 118.10229,500.58347 118,501.88056 118,524.86218 C 118,547.8438 118.10229,549.14089 120.25,553.39222 C 123.07476,558.98376 127.62215,562.0501 134.30046,562.86653 C 137.16021,563.21613 153,563.35818 169.5,563.18218 C 197.37528,562.88484 199.74048,562.72053 202.89547,560.86218 C 209.02839,557.24977 210.45888,554.26945 210.8495,544.29054 L 211.199,535.36218 L 186.5995,535.36218 L 162,535.36218 L 162,530.36218 L 162,525.36218 L 193,525.36218 L 224,525.36218 L 224,535.17852 C 224,556.63537 218.92522,567.65739 207.27733,571.49883 C 202.81722,572.96977 133.97411,573.71648 127.5,572.36414 z M 556,524.86218 L 556,477.36218 L 562.5,477.36218 L 569,477.36218 L 569,519.86218 L 569,562.36218 L 606,562.36218 L 643,562.36218 L 643,567.36218 L 643,572.36218 L 599.5,572.36218 L 556,572.36218 L 556,524.86218 z"
       id="path11027"
       sodipodi:nodetypes="cccssscccssccccccccssssscccccssssssssscccccccccscccccccccccccc"
       transform="translate(-58,-401.36218)" />
    <path
       id="path11029"
       d="M 366.75854,577.93696 L 366.5,523.51174 L 355,542.9682 C 348.675,553.66925 342.17066,564.6606 340.54591,567.39342 L 337.59183,572.36218 L 330.1809,572.36218 L 322.76998,572.36218 L 324.21316,570.11218 C 327.78705,564.54029 339.28977,545.23071 358.01915,513.36218 C 369.1709,494.38718 378.67867,478.43468 379.14753,477.91218 C 379.61833,477.38752 380,511.75062 380,554.66218 L 380,632.36218 L 373.50854,632.36218 L 367.01708,632.36218 L 366.75854,577.93696 z M 246,538.86218 L 246,505.36218 L 251,505.36218 L 256,505.36218 L 256,509.70734 L 256,514.05251 L 259.95648,510.2888 C 265.35126,505.15687 271.19311,503.95223 287.64842,504.57851 C 301.17407,505.09329 306.31901,506.43434 310.75442,510.60119 C 313.78017,513.44374 316,521.24825 316,529.04368 L 316,535.36218 L 310.63437,535.36218 L 305.26873,535.36218 L 304.76134,528.27073 C 303.84762,515.50025 299.61318,513.05123 279.32251,513.55803 C 266.12582,513.88764 264.14879,514.60666 259.56179,520.74473 C 257.6326,523.32628 257.48073,525.07481 257.20031,547.93295 L 256.90063,572.36218 L 251.45031,572.36218 L 246,572.36218 L 246,538.86218 z M 456,524.86218 L 456,477.36218 L 462.5,477.36218 L 469,477.36218 L 469,519.86218 L 469,562.36218 L 506,562.36218 L 543,562.36218 L 543,567.36218 L 543,572.36218 L 499.5,572.36218 L 456,572.36218 L 456,524.86218 z"
       style="fill:#b3b3b3;fill-opacity:1;stroke:none;display:inline"
       sodipodi:nodetypes="ccccccccssccccccccccccsscccccsscccccccccccccccccc"
       transform="translate(-58,-401.36218)" />
    <g
       id="g11031"
       clip-path="url(#clipPath1)">
      <g
         id="g11033">
        <path
           style="fill:none;stroke:#ffffff;stroke-width:10;stroke-opacity:1;filter:url(#filtert)"
           d="M 392,477.01413 L 410,507.30686 M 410,507.30686 C 419.9,523.96786 428,537.749 428,537.9316 M 428,537.9316 C 428,538.11421 432.5,545.6888 438,554.76403 M 438,554.76403 C 443.5,563.83926 448,571.51144 448,571.81332 M 405.038,523.86218 L 405.019,578.11218 M 405.019,578.11218 L 405,632.36218 M 109.05654,490.25135 C 111.39441,485.66876 117.75371,480.13961 122.72503,478.36717 M 122.72503,478.36717 C 127.80757,476.55508 187.90017,475.72719 198.2124,477.32718 M 198.2124,477.32718 C 212.77562,479.58675 220.60287,486.89104 221.72528,499.26913 M 221.72528,499.26913 L 222.27778,505.36218 M 120.25,496.33214 C 118.10229,500.58347 118,501.88056 118,524.86218 M 118,524.86218 C 118,547.8438 118.10229,549.14089 120.25,553.39222 M 120.25,553.39222 C 123.07476,558.98376 127.62215,562.0501 134.30046,562.86653 M 134.30046,562.86653 C 137.16021,563.21613 153,563.35818 169.5,563.18218 M 169.5,563.18218 C 197.37528,562.88484 199.74048,562.72053 202.89547,560.86218 M 162,525.36218 L 193,525.36218 M 193,525.36218 L 224,525.36218 M 224,525.36218 L 224,535.17852 M 224,535.17852 C 224,556.63537 218.92522,567.65739 207.27733,571.49883 M 556,477.36218 L 562.5,477.36218 M 562.5,477.36218 L 569,477.36218 M 569,477.36218 L 569,519.86218 M 569,519.86218 L 569,562.36218 M 569,562.36218 L 606,562.36218 M 606,562.36218 L 643,562.36218 M 643,562.36218 L 643,567.36218 M 643,567.36218 L 643,572.36218"
           id="path11035"
           sodipodi:nodetypes="cccssscccssccccccccssssscccccssssssssscccccccccscccccccccccccc"
           transform="translate(-58,-401.36218)" />
        <path
           style="fill:none;stroke:#000000;stroke-width:10;stroke-opacity:1;filter:url(#filtert)"
           d="M 392,554.68816 L 392,477.01413 M 448,571.81332 C 448,572.11519 444.86209,572.36218 441.02687,572.36218 M 441.02687,572.36218 L 434.05375,572.36218 M 434.05375,572.36218 L 429.47397,564.61218 M 429.47397,564.61218 C 426.95509,560.34968 423.19314,554.16218 421.11409,550.86218 M 421.11409,550.86218 C 419.03503,547.56218 415.83608,542.16218 414.0053,538.86218 M 414.0053,538.86218 C 412.17453,535.56218 409.40793,530.83718 407.85731,528.36218 M 407.85731,528.36218 L 405.038,523.86218 M 405,632.36218 L 398.5,632.36218 M 398.5,632.36218 L 392,632.36218 M 392,632.36218 L 392,554.68816 M 127.5,572.36414 C 121.30278,571.06964 118.5275,569.76422 114.55218,566.27385 M 114.55218,566.27385 C 106.73393,559.40933 105,551.89222 105,524.86218 M 105,524.86218 C 105,504.66657 105.98354,496.27494 109.05654,490.25135 M 222.27778,505.36218 L 216.27818,505.36218 M 216.27818,505.36218 L 210.27858,505.36218 M 210.27858,505.36218 L 209.67143,500.2357 M 209.67143,500.2357 C 208.91243,493.82713 206.8733,490.6528 202.17222,488.5616 M 202.17222,488.5616 C 199.11649,487.2023 193.55809,486.86514 169.06293,486.55327 M 169.06293,486.55327 C 152.87254,486.34714 137.25775,486.47435 134.36339,486.83598 M 134.36339,486.83598 C 127.61684,487.67891 123.07902,490.73216 120.25,496.33214 M 202.89547,560.86218 C 209.02839,557.24977 210.45888,554.26945 210.8495,544.29054 M 210.8495,544.29054 L 211.199,535.36218 M 211.199,535.36218 L 186.5995,535.36218 M 186.5995,535.36218 L 162,535.36218 M 162,535.36218 L 162,530.36218 M 162,530.36218 L 162,525.36218 M 207.27733,571.49883 C 202.81722,572.96977 133.97411,573.71648 127.5,572.36414 M 556,524.86218 L 556,477.36218 M 643,572.36218 L 599.5,572.36218 M 599.5,572.36218 L 556,572.36218 M 556,572.36218 L 556,524.86218"
           id="path11037"
           sodipodi:nodetypes="cccssscccssccccccccssssscccccssssssssscccccccccscccccccccccccc"
           transform="translate(-58,-401.36218)" />
      </g>
    </g>
    <g
       id="g11039"
       clip-path="url(#clipPathI)">
      <g
         id="g11041">
        <path
           id="path11043"
           d="M 366.5,523.51174 L 355,542.9682 M 355,542.9682 C 348.675,553.66925 342.17066,564.6606 340.54591,567.39342 M 340.54591,567.39342 L 337.59183,572.36218 M 379.14753,477.91218 C 379.61833,477.38752 380,511.75062 380,554.66218 M 380,554.66218 L 380,632.36218 M 246,505.36218 L 251,505.36218 M 251,505.36218 L 256,505.36218 M 256,505.36218 L 256,509.70734 M 256,509.70734 L 256,514.05251 M 256,514.05251 L 259.95648,510.2888 M 259.95648,510.2888 C 265.35126,505.15687 271.19311,503.95223 287.64842,504.57851 M 287.64842,504.57851 C 301.17407,505.09329 306.31901,506.43434 310.75442,510.60119 M 310.75442,510.60119 C 313.78017,513.44374 316,521.24825 316,529.04368 M 316,529.04368 L 316,535.36218 M 259.56179,520.74473 C 257.6326,523.32628 257.48073,525.07481 257.20031,547.93295 M 257.20031,547.93295 L 256.90063,572.36218 M 456,477.36218 L 462.5,477.36218 M 462.5,477.36218 L 469,477.36218 M 469,477.36218 L 469,519.86218 M 469,519.86218 L 469,562.36218 M 469,562.36218 L 506,562.36218 M 506,562.36218 L 543,562.36218 M 543,562.36218 L 543,567.36218 M 543,567.36218 L 543,572.36218"
           style="fill:none;stroke:#ffffff;stroke-width:10;stroke-opacity:1;filter:url(#filterq)"
           sodipodi:nodetypes="ccccccccssccccccccccccsscccccsscccccccccccccccccc"
           transform="translate(-58,-401.36218)" />
        <path
           id="path11045"
           d="M 366.75854,577.93696 L 366.5,523.51174 M 337.59183,572.36218 L 330.1809,572.36218 M 330.1809,572.36218 L 322.76998,572.36218 M 322.76998,572.36218 L 324.21316,570.11218 M 324.21316,570.11218 C 327.78705,564.54029 339.28977,545.23071 358.01915,513.36218 M 358.01915,513.36218 C 369.1709,494.38718 378.67867,478.43468 379.14753,477.91218 M 380,632.36218 L 373.50854,632.36218 M 373.50854,632.36218 L 367.01708,632.36218 M 367.01708,632.36218 L 366.75854,577.93696 M 246,538.86218 L 246,505.36218 M 316,535.36218 L 310.63437,535.36218 M 310.63437,535.36218 L 305.26873,535.36218 M 305.26873,535.36218 L 304.76134,528.27073 M 304.76134,528.27073 C 303.84762,515.50025 299.61318,513.05123 279.32251,513.55803 M 279.32251,513.55803 C 266.12582,513.88764 264.14879,514.60666 259.56179,520.74473 M 256.90063,572.36218 L 251.45031,572.36218 M 251.45031,572.36218 L 246,572.36218 M 246,572.36218 L 246,538.86218 M 456,524.86218 L 456,477.36218 M 543,572.36218 L 499.5,572.36218 M 499.5,572.36218 L 456,572.36218 M 456,572.36218 L 456,524.86218"
           style="fill:none;stroke:#000000;stroke-width:10;stroke-opacity:1;filter:url(#filterq)"
           sodipodi:nodetypes="ccccccccssccccccccccccsscccccsscccccccccccccccccc"
           transform="translate(-58,-401.36218)" />
      </g>
    </g>
  </g>
</svg>
